<mxfile host="app.diagrams.net" modified="2023-02-28T17:01:52.072Z" agent="5.0 (Macintosh; Intel Mac OS X 10_15_7) AppleWebKit/537.36 (KHTML, like Gecko) Chrome/110.0.0.0 Safari/537.36" etag="zOrnA52inBOtxNuxrDQK" version="20.8.23" type="github">
  <diagram name="Page-1" id="yrZluvnRAqLGCpB4WXvw">
    <mxGraphModel dx="2074" dy="1099" grid="1" gridSize="10" guides="1" tooltips="1" connect="1" arrows="1" fold="1" page="1" pageScale="1" pageWidth="850" pageHeight="1100" math="0" shadow="0">
      <root>
        <mxCell id="0" />
        <mxCell id="1" parent="0" />
        <mxCell id="G9dAa4tluXfHS_wq2_Ai-1" value="" style="edgeStyle=orthogonalEdgeStyle;rounded=0;orthogonalLoop=1;jettySize=auto;html=1;fillColor=#d5e8d4;strokeColor=#82b366;" edge="1" parent="1" source="G9dAa4tluXfHS_wq2_Ai-2" target="G9dAa4tluXfHS_wq2_Ai-9">
          <mxGeometry relative="1" as="geometry" />
        </mxCell>
        <mxCell id="G9dAa4tluXfHS_wq2_Ai-50" value="SYNC" style="edgeStyle=orthogonalEdgeStyle;rounded=0;orthogonalLoop=1;jettySize=auto;html=1;" edge="1" parent="1" source="G9dAa4tluXfHS_wq2_Ai-2" target="G9dAa4tluXfHS_wq2_Ai-7">
          <mxGeometry relative="1" as="geometry" />
        </mxCell>
        <mxCell id="G9dAa4tluXfHS_wq2_Ai-2" value="Wait Compute Kernel" style="rounded=0;whiteSpace=wrap;html=1;fillColor=#d5e8d4;strokeColor=#82b366;" vertex="1" parent="1">
          <mxGeometry x="210" y="240" width="120" height="40" as="geometry" />
        </mxCell>
        <mxCell id="G9dAa4tluXfHS_wq2_Ai-3" value="" style="edgeStyle=orthogonalEdgeStyle;rounded=0;orthogonalLoop=1;jettySize=auto;html=1;fillColor=#ffe6cc;strokeColor=#d79b00;" edge="1" parent="1" source="G9dAa4tluXfHS_wq2_Ai-4" target="G9dAa4tluXfHS_wq2_Ai-7">
          <mxGeometry relative="1" as="geometry" />
        </mxCell>
        <mxCell id="G9dAa4tluXfHS_wq2_Ai-4" value="Compute Kernel" style="rounded=0;whiteSpace=wrap;html=1;fillColor=#ffe6cc;strokeColor=#d79b00;" vertex="1" parent="1">
          <mxGeometry x="490" y="160" width="120" height="40" as="geometry" />
        </mxCell>
        <mxCell id="G9dAa4tluXfHS_wq2_Ai-6" value="" style="edgeStyle=orthogonalEdgeStyle;rounded=0;orthogonalLoop=1;jettySize=auto;html=1;" edge="1" parent="1" source="G9dAa4tluXfHS_wq2_Ai-7" target="G9dAa4tluXfHS_wq2_Ai-46">
          <mxGeometry relative="1" as="geometry" />
        </mxCell>
        <mxCell id="G9dAa4tluXfHS_wq2_Ai-7" value="Sync" style="rounded=0;whiteSpace=wrap;html=1;fillColor=#ffe6cc;strokeColor=#d79b00;" vertex="1" parent="1">
          <mxGeometry x="490" y="240" width="120" height="40" as="geometry" />
        </mxCell>
        <mxCell id="G9dAa4tluXfHS_wq2_Ai-8" value="" style="edgeStyle=orthogonalEdgeStyle;rounded=0;orthogonalLoop=1;jettySize=auto;html=1;fillColor=#d5e8d4;strokeColor=#82b366;" edge="1" parent="1" source="G9dAa4tluXfHS_wq2_Ai-9" target="G9dAa4tluXfHS_wq2_Ai-12">
          <mxGeometry relative="1" as="geometry" />
        </mxCell>
        <mxCell id="G9dAa4tluXfHS_wq2_Ai-9" value="TCCL COMMUNICATE" style="rounded=0;whiteSpace=wrap;html=1;fillColor=#d5e8d4;strokeColor=#82b366;" vertex="1" parent="1">
          <mxGeometry x="210" y="360" width="120" height="40" as="geometry" />
        </mxCell>
        <mxCell id="G9dAa4tluXfHS_wq2_Ai-10" value="" style="edgeStyle=orthogonalEdgeStyle;rounded=0;orthogonalLoop=1;jettySize=auto;html=1;fillColor=#ffe6cc;strokeColor=#d79b00;" edge="1" parent="1" source="G9dAa4tluXfHS_wq2_Ai-11" target="G9dAa4tluXfHS_wq2_Ai-13">
          <mxGeometry relative="1" as="geometry" />
        </mxCell>
        <mxCell id="G9dAa4tluXfHS_wq2_Ai-11" value="Wait Communicate" style="rounded=0;whiteSpace=wrap;html=1;fillColor=#ffe6cc;strokeColor=#d79b00;" vertex="1" parent="1">
          <mxGeometry x="490" y="480" width="120" height="40" as="geometry" />
        </mxCell>
        <mxCell id="G9dAa4tluXfHS_wq2_Ai-51" value="SYNC" style="edgeStyle=orthogonalEdgeStyle;rounded=0;orthogonalLoop=1;jettySize=auto;html=1;" edge="1" parent="1" source="G9dAa4tluXfHS_wq2_Ai-12" target="G9dAa4tluXfHS_wq2_Ai-11">
          <mxGeometry relative="1" as="geometry" />
        </mxCell>
        <mxCell id="G9dAa4tluXfHS_wq2_Ai-12" value="TCCL COMMUNICATE" style="rounded=0;whiteSpace=wrap;html=1;fillColor=#d5e8d4;strokeColor=#82b366;" vertex="1" parent="1">
          <mxGeometry x="210" y="480" width="120" height="40" as="geometry" />
        </mxCell>
        <mxCell id="G9dAa4tluXfHS_wq2_Ai-13" value="Compute" style="rounded=0;whiteSpace=wrap;html=1;fillColor=#ffe6cc;strokeColor=#d79b00;" vertex="1" parent="1">
          <mxGeometry x="490" y="560" width="120" height="40" as="geometry" />
        </mxCell>
        <mxCell id="G9dAa4tluXfHS_wq2_Ai-14" value="communicate&lt;br&gt;stream&lt;br&gt;&amp;amp;&lt;br&gt;communicate&lt;br&gt;progress" style="text;html=1;strokeColor=none;fillColor=none;align=center;verticalAlign=middle;whiteSpace=wrap;rounded=0;" vertex="1" parent="1">
          <mxGeometry x="240" y="80" width="60" height="30" as="geometry" />
        </mxCell>
        <mxCell id="G9dAa4tluXfHS_wq2_Ai-15" value="compute&lt;br&gt;stream&lt;br&gt;&amp;amp;&lt;br&gt;comupute&lt;br style=&quot;border-color: var(--border-color);&quot;&gt;progress" style="text;html=1;strokeColor=none;fillColor=none;align=center;verticalAlign=middle;whiteSpace=wrap;rounded=0;" vertex="1" parent="1">
          <mxGeometry x="520" y="80" width="60" height="30" as="geometry" />
        </mxCell>
        <mxCell id="G9dAa4tluXfHS_wq2_Ai-16" value="" style="edgeStyle=orthogonalEdgeStyle;rounded=0;orthogonalLoop=1;jettySize=auto;html=1;fillColor=#e1d5e7;strokeColor=#9673a6;" edge="1" parent="1" source="G9dAa4tluXfHS_wq2_Ai-17" target="G9dAa4tluXfHS_wq2_Ai-19">
          <mxGeometry relative="1" as="geometry" />
        </mxCell>
        <mxCell id="G9dAa4tluXfHS_wq2_Ai-17" value="device allreduce" style="rounded=0;whiteSpace=wrap;html=1;fillColor=#e1d5e7;strokeColor=#9673a6;" vertex="1" parent="1">
          <mxGeometry x="40" y="200" width="120" height="40" as="geometry" />
        </mxCell>
        <mxCell id="G9dAa4tluXfHS_wq2_Ai-18" value="all kernel ending" style="edgeStyle=orthogonalEdgeStyle;rounded=0;orthogonalLoop=1;jettySize=auto;html=1;fillColor=#e1d5e7;strokeColor=#9673a6;" edge="1" parent="1" source="G9dAa4tluXfHS_wq2_Ai-19" target="G9dAa4tluXfHS_wq2_Ai-21">
          <mxGeometry relative="1" as="geometry" />
        </mxCell>
        <mxCell id="G9dAa4tluXfHS_wq2_Ai-19" value="MCP" style="rounded=0;whiteSpace=wrap;html=1;fillColor=#e1d5e7;strokeColor=#9673a6;" vertex="1" parent="1">
          <mxGeometry x="40" y="280" width="120" height="40" as="geometry" />
        </mxCell>
        <mxCell id="G9dAa4tluXfHS_wq2_Ai-20" value="host op ending" style="edgeStyle=orthogonalEdgeStyle;rounded=0;orthogonalLoop=1;jettySize=auto;html=1;fillColor=#e1d5e7;strokeColor=#9673a6;" edge="1" parent="1" source="G9dAa4tluXfHS_wq2_Ai-21" target="G9dAa4tluXfHS_wq2_Ai-23">
          <mxGeometry relative="1" as="geometry">
            <Array as="points">
              <mxPoint x="100" y="420" />
              <mxPoint x="100" y="420" />
            </Array>
          </mxGeometry>
        </mxCell>
        <mxCell id="G9dAa4tluXfHS_wq2_Ai-21" value="host allreduce" style="rounded=0;whiteSpace=wrap;html=1;fillColor=#dae8fc;strokeColor=#6c8ebf;" vertex="1" parent="1">
          <mxGeometry x="40" y="360" width="120" height="40" as="geometry" />
        </mxCell>
        <mxCell id="G9dAa4tluXfHS_wq2_Ai-22" value="" style="edgeStyle=orthogonalEdgeStyle;rounded=0;orthogonalLoop=1;jettySize=auto;html=1;" edge="1" parent="1" source="G9dAa4tluXfHS_wq2_Ai-23" target="G9dAa4tluXfHS_wq2_Ai-42">
          <mxGeometry relative="1" as="geometry" />
        </mxCell>
        <mxCell id="G9dAa4tluXfHS_wq2_Ai-23" value="MCP" style="rounded=0;whiteSpace=wrap;html=1;fillColor=#e1d5e7;strokeColor=#9673a6;" vertex="1" parent="1">
          <mxGeometry x="40" y="440" width="120" height="40" as="geometry" />
        </mxCell>
        <mxCell id="G9dAa4tluXfHS_wq2_Ai-24" value="" style="endArrow=none;html=1;rounded=0;entryX=0;entryY=0;entryDx=0;entryDy=0;exitX=1;exitY=0;exitDx=0;exitDy=0;" edge="1" parent="1" source="G9dAa4tluXfHS_wq2_Ai-17" target="G9dAa4tluXfHS_wq2_Ai-9">
          <mxGeometry width="50" height="50" relative="1" as="geometry">
            <mxPoint x="180" y="570" as="sourcePoint" />
            <mxPoint x="230" y="520" as="targetPoint" />
          </mxGeometry>
        </mxCell>
        <mxCell id="G9dAa4tluXfHS_wq2_Ai-25" value="" style="endArrow=none;html=1;rounded=0;entryX=0;entryY=1;entryDx=0;entryDy=0;exitX=1;exitY=1;exitDx=0;exitDy=0;" edge="1" parent="1" source="G9dAa4tluXfHS_wq2_Ai-42" target="G9dAa4tluXfHS_wq2_Ai-9">
          <mxGeometry width="50" height="50" relative="1" as="geometry">
            <mxPoint x="100" y="210" as="sourcePoint" />
            <mxPoint x="220" y="370" as="targetPoint" />
          </mxGeometry>
        </mxCell>
        <mxCell id="G9dAa4tluXfHS_wq2_Ai-42" value="device bcast" style="rounded=0;whiteSpace=wrap;html=1;fillColor=#e1d5e7;strokeColor=#9673a6;" vertex="1" parent="1">
          <mxGeometry x="40" y="520" width="120" height="40" as="geometry" />
        </mxCell>
        <mxCell id="G9dAa4tluXfHS_wq2_Ai-45" value="" style="edgeStyle=orthogonalEdgeStyle;rounded=0;orthogonalLoop=1;jettySize=auto;html=1;" edge="1" parent="1" source="G9dAa4tluXfHS_wq2_Ai-46" target="G9dAa4tluXfHS_wq2_Ai-11">
          <mxGeometry relative="1" as="geometry" />
        </mxCell>
        <mxCell id="G9dAa4tluXfHS_wq2_Ai-46" value="compute" style="rounded=0;whiteSpace=wrap;html=1;fillColor=#ffe6cc;strokeColor=#d79b00;" vertex="1" parent="1">
          <mxGeometry x="490" y="400" width="120" height="40" as="geometry" />
        </mxCell>
        <mxCell id="G9dAa4tluXfHS_wq2_Ai-49" value="" style="endArrow=none;html=1;rounded=0;" edge="1" parent="1">
          <mxGeometry width="50" height="50" relative="1" as="geometry">
            <mxPoint x="450" y="630" as="sourcePoint" />
            <mxPoint x="450" y="80" as="targetPoint" />
          </mxGeometry>
        </mxCell>
      </root>
    </mxGraphModel>
  </diagram>
</mxfile>
